PathFileType	4	(X/Y/Z)	c:/Users/goper/Files/vsCode/490R/osim_files/A04/A04_ROM.trc
DataRate	CameraRate	NumFrames	NumMarkers	Units                	OrigDataRate	OrigDataStartFrame	OrigNumFrames
120.00	120.00	5	36	mm	120.0	584	1556
                Frame#	Time	LPSIS			LASIS			LTH1			LTH2			LTH3			LTH4			LLFE			LMFE			LSH1			LSH2			LSH3			LSH4			LLMAL			LMMAL			LCAL			LMTP5			LTOE			LMTP1			RPSIS			RASIS			RTH1			RTH2			RTH3			RTH4			RLFE			RMFE			RSH1			RSH2			RSH3			RSH4			RLMAL			RMMAL			RCAL			RMTP1			RTOE			RMTP5		
		X1	Y1	Z1	X2	Y2	Z2	X3	Y3	Z3	X4	Y4	Z4	X5	Y5	Z5	X6	Y6	Z6	X7	Y7	Z7	X8	Y8	Z8	X9	Y9	Z9	X10	Y10	Z10	X11	Y11	Z11	X12	Y12	Z12	X13	Y13	Z13	X14	Y14	Z14	X15	Y15	Z15	X16	Y16	Z16	X17	Y17	Z17	X18	Y18	Z18	X19	Y19	Z19	X20	Y20	Z20	X21	Y21	Z21	X22	Y22	Z22	X23	Y23	Z23	X24	Y24	Z24	X25	Y25	Z25	X26	Y26	Z26	X27	Y27	Z27	X28	Y28	Z28	X29	Y29	Z29	X30	Y30	Z30	X31	Y31	Z31	X32	Y32	Z32	X33	Y33	Z33	X34	Y34	Z34	X35	Y35	Z35	X36	Y36	Z36

584	4.85833	-337.96426	1075.26648	545.23456	-138.16396	969.72870	449.91257	-217.42824	696.29559	386.77704	-207.64104	655.60944	372.56122	-157.76073	707.14221	386.43594	-154.53638	664.91339	371.61517	-170.20422	542.25671	357.36737	-150.67480	504.58981	491.49670	-210.69920	447.54260	331.05209	-206.42557	405.21127	321.13580	-148.50932	442.87903	339.98566	-154.42046	400.84961	330.71945	-249.74203	116.19072	278.72595	-223.69424	109.56409	359.44629	-312.06882	69.49558	332.26797	-115.34074	67.30336	227.79619	-62.35696	75.50544	285.72177	-76.13393	57.16224	329.81476	-334.24341	1072.10693	654.25616	-113.01125	1013.02429	729.56702	-183.20219	731.32971	792.09265	-173.83545	689.99359	791.41711	-121.59875	738.94641	791.79089	-120.24344	691.60022	789.00043	-107.65046	550.84229	766.09161	-116.00272	544.74042	648.87054	-194.10138	347.31616	773.75238	-197.97719	299.94888	765.75983	-132.53314	336.65857	770.04108	-146.41110	290.75897	768.13361	-204.35536	104.83563	771.92706	-191.02798	109.40440	636.84412	-283.23547	61.96752	700.26721	-68.05433	55.61061	643.91827	-36.79126	74.71092	688.95667	-68.64787	48.79215	764.70038
585	4.86667	-339.88330	1076.39075	544.70258	-140.63042	969.33795	450.10519	-220.17198	696.43207	386.89279	-210.49715	655.82520	372.59534	-160.55806	707.37988	386.57111	-157.31422	665.21954	371.67819	-173.13533	542.43579	357.47861	-152.84203	505.13321	491.40240	-213.08194	447.53064	331.11176	-208.52139	405.17435	321.23154	-150.80301	443.16299	340.08536	-156.53143	401.18188	330.79990	-249.89291	116.00622	278.55972	-223.87627	109.36145	359.40634	-312.20923	69.30684	332.08984	-115.45734	67.30462	227.78351	-62.50576	75.59752	285.75183	-76.26482	57.27596	329.83453	-336.69089	1073.09497	653.72003	-115.93338	1012.33447	729.81488	-186.74144	731.44891	792.43481	-176.81247	690.08447	791.33575	-124.73087	739.09241	791.80560	-123.28680	691.76416	789.05939	-110.34364	551.13013	766.14685	-118.64036	544.85632	648.91180	-195.72844	347.06540	773.73370	-199.36514	299.71866	765.79309	-134.04741	336.76175	770.14813	-147.88208	290.71695	768.19525	-204.86989	104.57048	771.96881	-191.49214	109.09933	636.75140	-283.52109	61.51422	700.29388	-68.24654	55.76482	643.93719	-36.98033	74.93243	688.99786	-68.77851	48.89211	764.69366
586	4.87500	-341.83636	1077.45496	544.17676	-143.12570	968.84912	450.19653	-223.21739	696.61267	386.73495	-213.34641	655.96991	372.52505	-162.61612	708.12299	386.81665	-160.17525	665.40875	371.67810	-175.99660	542.55890	357.45718	-155.61940	505.35059	491.42322	-215.33247	447.44144	331.00085	-210.56357	405.16245	321.17300	-153.11887	443.46664	340.04422	-158.53441	401.38263	330.71777	-250.10437	115.79364	278.34714	-224.00104	109.12402	359.35016	-312.32742	69.05264	331.91223	-115.53548	67.28879	227.76241	-62.61469	75.70968	285.76270	-76.38437	57.41376	329.84521	-338.93988	1073.92969	653.12219	-118.88425	1011.53217	730.02502	-189.39651	731.32361	791.88770	-179.83794	690.07263	791.22858	-127.80928	739.20728	791.85339	-126.29256	691.85962	789.09973	-112.95790	551.33612	766.22363	-121.01889	544.99225	649.01093	-197.28384	346.88651	773.83734	-200.73370	299.50500	765.90283	-135.60033	336.83829	770.15063	-149.09152	290.75458	768.21173	-205.29369	104.33039	772.03888	-192.07281	108.81482	636.60205	-283.72693	61.08211	700.31854	-68.37705	55.94350	643.99591	-37.16838	75.15147	689.01703	-68.93866	49.01672	764.68372
587	4.88333	-343.57541	1078.35632	543.53760	-145.13950	968.47058	450.05911	-225.96571	696.84174	386.52988	-216.08585	656.23547	372.20963	-166.40326	707.85718	386.34039	-163.04012	665.69574	371.44064	-178.83655	542.75317	357.28641	-158.46338	505.61716	491.25656	-217.56705	447.34686	330.78113	-212.63007	405.09140	320.98260	-155.40245	443.72452	339.88397	-160.32967	401.71057	329.82874	-250.28917	115.59158	278.12048	-224.06812	108.94089	359.18271	-312.38657	68.83514	331.72037	-115.63193	67.19043	227.67554	-62.71587	75.75445	285.70813	-76.47714	57.54218	329.79727	-341.12421	1074.71228	652.54749	-121.75811	1010.67932	730.19489	-192.54858	731.42725	791.71912	-182.80002	690.10254	791.16370	-130.90800	739.25604	791.93146	-129.35703	691.91388	789.20636	-115.61146	551.51129	766.31525	-123.12636	545.14905	649.12457	-198.80759	346.66772	773.86621	-201.97612	299.25708	765.93402	-137.17621	336.90216	770.21979	-150.42534	290.79648	768.29822	-205.70612	104.05170	772.08215	-192.23601	109.07935	635.81659	-283.89923	60.66765	700.32062	-68.58048	56.07805	644.04236	-37.33757	75.34883	689.03674	-69.06460	49.13863	764.65472
588	4.89167	-345.48370	1079.28577	542.87079	-148.07913	967.75488	450.16977	-228.72403	696.95746	386.12222	-218.85463	656.40222	371.87076	-169.17467	708.02441	385.97324	-165.74405	666.01331	371.09467	-181.65237	542.85248	356.97977	-161.29572	505.86414	490.96747	-219.82605	447.29010	330.49338	-214.65230	405.03372	320.72885	-157.66086	444.00983	339.59067	-162.47401	401.84164	329.70554	-250.41821	115.40469	277.91013	-224.61835	109.28522	358.93765	-312.43518	68.66817	331.50763	-115.71637	67.14258	227.60025	-62.89714	75.97430	285.48111	-76.63899	57.64279	329.76599	-343.27841	1075.45129	651.97467	-124.45575	1009.91052	730.29376	-195.62296	731.27667	791.50470	-185.74757	689.85535	790.96967	-134.00581	739.23682	791.95306	-132.26012	691.88135	789.33130	-118.15262	551.63043	766.37903	-125.22040	545.24146	649.22845	-200.39853	346.45636	773.94897	-203.32903	299.00891	765.95801	-138.57841	336.88852	770.26746	-151.63742	290.78094	768.33136	-206.16960	103.77670	772.14093	-192.78221	108.89314	636.04999	-284.03757	60.28876	700.44116	-68.70135	56.23419	644.10681	-37.52131	75.57372	689.07166	-69.23131	49.23879	764.69360
